<?xml version="1.0" standalone="no"?>
<!DOCTYPE svg PUBLIC "-//W3C//DTD SVG 20010904//EN"
 "http://www.w3.org/TR/2001/REC-SVG-20010904/DTD/svg10.dtd">
<svg version="1.0" xmlns="http://www.w3.org/2000/svg"
 width="1416.000000pt" height="964.000000pt" viewBox="0 0 1416.000000 964.000000"
 preserveAspectRatio="xMidYMid meet">

<g transform="translate(0.000000,964.000000) scale(0.100000,-0.100000)"
fill="#000000" stroke="none">
<path d="M635 9221 c-49 -23 -89 -64 -109 -113 -14 -34 -16 -462 -16 -4227 l0
-4189 28 -53 c22 -43 38 -59 81 -81 l53 -28 6427 0 c4676 0 6437 3 6466 11 52
15 119 82 134 134 16 57 16 8363 0 8420 -15 52 -82 119 -134 134 -29 8 -1789
11 -6465 11 -6233 0 -6426 -1 -6465 -19z m6587 -2435 c197 -42 379 -204 438
-391 19 -59 19 -60 52 -11 41 63 130 142 200 177 93 47 169 62 273 56 276 -17
474 -209 510 -492 21 -168 -87 -390 -236 -486 l-49 -32 29 -18 c47 -29 54 -52
47 -151 -3 -48 -4 -88 -2 -88 1 0 29 9 62 20 62 22 98 20 108 -5 3 -9 -1 -46
-9 -84 -8 -38 -17 -99 -21 -137 -7 -76 -25 -114 -53 -114 -10 0 -44 11 -74 25
-67 29 -57 46 -88 -165 -12 -85 -28 -170 -35 -188 -26 -64 -2 -62 -846 -62
-706 0 -766 1 -798 18 -52 26 -80 74 -80 138 l0 54 -142 0 c-137 0 -144 -1
-263 -40 -322 -105 -588 -180 -613 -174 -45 11 -80 42 -97 87 -13 36 -15 92
-13 418 l3 376 28 36 c17 23 42 41 66 48 41 12 31 15 542 -142 l226 -69 132 0
131 0 0 55 c0 65 18 105 60 135 27 20 43 22 148 22 l117 -1 -74 26 c-195 68
-347 233 -397 432 -24 95 -16 243 19 340 51 144 151 260 286 330 131 68 269
87 413 57z m-3282 -2668 c0 -54 -4 -66 -27 -90 l-27 -28 -205 0 c-235 0 -273
-7 -301 -53 -19 -30 -20 -53 -20 -340 l0 -309 34 -34 34 -34 256 0 256 0 0
-85 0 -85 -310 0 c-346 0 -349 0 -417 72 -61 63 -63 82 -63 485 0 393 1 397
56 470 29 38 87 71 147 83 23 4 165 8 315 9 l272 1 0 -62z m872 29 c69 -34
112 -89 129 -161 6 -30 10 -109 7 -196 -3 -125 -6 -151 -25 -186 -26 -49 -70
-88 -118 -105 -19 -7 -35 -16 -35 -19 0 -3 47 -82 105 -174 87 -139 105 -174
105 -207 l0 -39 -109 0 -108 0 -106 203 -105 202 -111 3 -111 3 0 -206 0 -205
-105 0 -105 0 0 561 0 560 318 -3 317 -3 57 -28z m576 -529 l2 -558 -110 0
-110 0 0 553 c0 305 3 557 7 561 4 4 52 5 107 4 l101 -3 3 -557z m1012 499 c0
-56 -3 -66 -28 -90 -28 -27 -30 -27 -160 -27 l-132 0 0 -470 0 -470 -105 0
-105 0 0 470 0 470 -160 0 -160 0 0 90 0 90 425 0 425 0 0 -63z m378 -499 l2
-558 -110 0 -110 0 0 553 c0 305 3 557 7 561 4 4 52 5 107 4 l101 -3 3 -557z
m470 325 l2 -233 98 0 97 0 109 235 109 235 103 0 104 0 0 -50 c0 -45 -12 -71
-125 -276 -69 -125 -125 -229 -125 -233 0 -4 61 -114 135 -245 110 -194 135
-246 135 -278 l0 -39 -110 3 -111 3 -112 232 -112 233 -97 0 -98 0 0 -235 0
-235 -110 0 -110 0 0 553 c0 305 3 557 7 561 4 4 52 5 107 4 l101 -3 3 -232z
m932 145 c0 -51 -7 -131 -15 -178 -8 -47 -15 -86 -15 -87 0 -2 -22 -3 -50 -3
-27 0 -50 1 -50 3 0 1 -7 40 -15 87 -8 47 -15 127 -15 178 l0 92 80 0 80 0 0
-92z m868 -426 c115 -347 172 -531 172 -560 l0 -43 -107 3 -106 3 -13 40 c-7
22 -23 73 -34 113 l-22 72 -199 0 -198 0 -31 -102 c-17 -57 -33 -109 -35 -115
-3 -9 -35 -13 -115 -13 l-110 0 0 32 c0 18 79 270 176 560 l176 528 136 0 137
0 173 -518z m557 40 l0 -472 273 0 272 0 0 -85 0 -85 -380 0 -380 0 0 560 0
561 108 -3 107 -3 0 -473z m923 1 l2 -473 270 0 270 0 0 -85 0 -85 -380 0
-380 0 0 560 0 561 108 -3 107 -3 3 -472z"/>
<path d="M7070 6289 c-73 -29 -82 -143 -14 -180 51 -27 122 -8 143 38 27 59 4
123 -51 142 -37 13 -45 13 -78 0z"/>
<path d="M8124 6181 c-12 -5 -31 -22 -43 -37 -61 -77 19 -183 116 -151 100 32
86 179 -18 192 -19 3 -44 1 -55 -4z"/>
<path d="M7296 5614 c-18 -18 -19 -23 -6 -44 8 -13 62 -15 385 -15 323 0 377
2 385 15 13 21 12 26 -6 44 -13 14 -62 16 -379 16 -317 0 -366 -2 -379 -16z"/>
<path d="M7937 5159 c-35 -21 -47 -64 -47 -173 0 -171 16 -186 194 -186 114 0
116 1 148 29 32 29 33 31 36 126 5 121 -2 156 -35 189 -25 25 -29 26 -152 26
-69 0 -134 -5 -144 -11z"/>
<path d="M7219 4891 c-38 -38 -40 -91 -4 -126 55 -56 155 -21 157 54 3 89 -91
134 -153 72z"/>
<path d="M7035 4835 c-14 -13 -25 -31 -25 -38 0 -27 35 -59 65 -59 30 0 65 32
65 59 0 19 -45 63 -65 63 -9 0 -27 -11 -40 -25z"/>
<path d="M4330 3826 l0 -176 170 0 170 0 32 29 c32 29 33 31 36 124 3 72 0
103 -12 129 -28 57 -44 62 -228 66 l-168 4 0 -176z"/>
<path d="M8662 3713 c-39 -130 -70 -239 -68 -240 2 -2 68 -2 148 -1 l145 3
-71 238 c-39 130 -73 237 -77 237 -3 0 -38 -107 -77 -237z"/>
</g>
</svg>
